<svg xmlns="http://www.w3.org/2000/svg" width="450" height="512" viewBox="0 0 450 512">
  <g id="svgexport-5_3_" data-name="svgexport-5(3)" transform="translate(-31)">
    <g id="Document_1_">
      <g id="Group_1" data-name="Group 1" opacity="0.55">
        <path id="Path_1" data-name="Path 1" d="M361,15A14.991,14.991,0,0,0,346,0H151V105a14.991,14.991,0,0,1-15,15H31V405a14.991,14.991,0,0,0,15,15h75V195a44.722,44.722,0,0,1,13.184-31.816l90-90A44.722,44.722,0,0,1,256,60H361Z" fill="#fff"/>
        <path id="Path_2" data-name="Path 2" d="M121,8.789,39.789,90H121Z" fill="#fff"/>
      </g>
      <g id="Group_2" data-name="Group 2">
        <path id="Path_3" data-name="Path 3" d="M159.789,180H241V98.789Z" fill="#fff"/>
        <path id="Path_4" data-name="Path 4" d="M466,90H271V195a14.991,14.991,0,0,1-15,15H151V497a14.991,14.991,0,0,0,15,15H466a14.991,14.991,0,0,0,15-15V105A14.991,14.991,0,0,0,466,90ZM286.439,371.367l30-120a15.007,15.007,0,0,1,29.121,7.266l-30,120a15.007,15.007,0,0,1-29.121-7.266ZM215.395,304.4l30-30a15,15,0,0,1,21.211,21.211L247.211,315l19.4,19.395a15,15,0,1,1-21.211,21.211l-30-30A14.993,14.993,0,0,1,215.395,304.4ZM406,450H226a15,15,0,0,1,0-30H406a15,15,0,0,1,0,30Zm10.605-124.395-30,30a15,15,0,0,1-21.211-21.211L384.789,315l-19.395-19.395a15,15,0,0,1,21.211-21.211l30,30A14.994,14.994,0,0,1,416.605,325.605Z" fill="#fff"/>
      </g>
    </g>
  </g>
</svg>
