<svg xmlns="http://www.w3.org/2000/svg" width="56.029" height="55.971" viewBox="0 0 56.029 55.971">
  <g id="svgexport-5_2_" data-name="svgexport-5(2)" transform="translate(-3.831 -4.019)">
    <g id="Group_1" data-name="Group 1">
      <path id="Path_1" data-name="Path 1" d="M36.44,16.77a8.074,8.074,0,0,1-3.58,1.3V30.21a4.48,4.48,0,1,1-2,0V18.03a8,8,0,0,1-3.52-1.41L18.09,39.18a3.73,3.73,0,0,0,0,2.86L22.2,52.11a.983.983,0,0,0,.93.65H40.58a1.023,1.023,0,0,0,.94-.63l4.11-10.09a3.823,3.823,0,0,0,0-2.86Z" fill="#fff"/>
      <path id="Path_2" data-name="Path 2" d="M42.28,54.23a3.1,3.1,0,0,1-1.94.53H23.13a3.045,3.045,0,0,1-1.7-.52l-1.59,4.41a.994.994,0,0,0,.94,1.34H42.93a1.01,1.01,0,0,0,.95-1.34Z" fill="#fff"/>
      <path id="Path_3" data-name="Path 3" d="M29.38,34.57a2.48,2.48,0,1,0,2.48-2.48,2.48,2.48,0,0,0-2.48,2.48Z" fill="#fff" opacity="0.55"/>
      <path id="Path_4" data-name="Path 4" d="M55.13,4.76a4.72,4.72,0,0,0-2.807,8.514c-8.381,2.762-13.352-1.935-14.422-3.1a.438.438,0,0,0,.009-.1A6.052,6.052,0,0,0,26.15,8.06C23.5,5.86,17.31,2.27,8.31,6.42a4.739,4.739,0,1,0,3.09.93c8.4-2.77,13.38,1.97,14.42,3.12a6.048,6.048,0,0,0,11.6,1.973,15.281,15.281,0,0,0,9.938,3.673A19.161,19.161,0,0,0,55.413,14.2h.017a4.725,4.725,0,0,0-.3-9.44Z" fill="#fff" opacity="0.55"/>
    </g>
  </g>
</svg>
