

<svg version="1.1" id="Capa_1" xmlns="http://www.w3.org/2000/svg" xmlns:xlink="http://www.w3.org/1999/xlink" x="0px" y="0px"
	 viewBox="0 0 470 470" style="enable-background:new 0 0 470 470;" xml:space="preserve">
	<path d="M366.044,77.267c-0.53-0.598-1.156-1.107-1.852-1.511c-20.523-16.65-44.312-29.416-70.246-37.179
		c-0.438-0.178-0.898-0.316-1.378-0.411C274.371,32.858,255.14,30,235.252,30s-39.119,2.858-57.316,8.166
		c-0.48,0.094-0.94,0.232-1.378,0.411c-27.776,8.315-53.094,22.366-74.572,40.783c-0.712,0.439-1.348,0.987-1.876,1.631
		C87.044,92.469,75.441,105.577,65.632,120c-0.508,0.557-0.932,1.188-1.254,1.879C42.828,154.323,30.252,193.218,30.252,235
		c0,37.23,9.98,72.173,27.399,102.298c0.28,0.686,0.657,1.321,1.117,1.888c25.311,42.711,65.673,75.49,113.733,90.979
		c0.407,0.176,0.835,0.313,1.276,0.415c19.415,6.116,40.065,9.421,61.474,9.421c29.598,0,57.745-6.315,83.181-17.652
		c0.63-0.191,1.236-0.458,1.797-0.808c24.566-11.235,46.537-27.188,64.761-46.688c0.648-0.502,1.213-1.105,1.667-1.79
		c19.654-21.534,34.778-47.264,43.874-75.667c0.195-0.445,0.348-0.912,0.454-1.396c6.02-19.276,9.266-39.765,9.266-60.998
		C440.252,171.636,411.352,114.9,366.044,77.267z M282.317,50.903c-5.892,20.649-25.08,35.525-47.065,35.525
		s-41.173-14.877-47.065-35.525C203.243,47.052,219.012,45,235.252,45S267.261,47.052,282.317,50.903z M108.894,93.24h46.107
		c8.521,0,15.455,6.933,15.455,15.455c0,6.44-4.057,12.267-10.096,14.5c-2.944,1.089-4.899,3.896-4.899,7.035v76.879
		c-21.108,0.358-42.394,0.46-45.81,0.026c-2.151-0.457-4.403,0.055-6.151,1.409c-1.833,1.421-2.905,3.609-2.905,5.928v14.471
		c0,6.045-4.918,10.963-10.963,10.963c-6.045,0-10.963-4.918-10.963-10.963v-101.43C87.348,114.908,97.506,103.401,108.894,93.24z
		 M63.669,153.445v75.497c0,11.709,7.793,21.628,18.463,24.854v19.607c-11.616,6.771-20.284,18.057-23.578,31.443
		C49.973,283.216,45.252,259.649,45.252,235C45.252,205.826,51.869,178.171,63.669,153.445z M72.094,332.257v-15.405
		c0-19.446,15.82-35.266,35.267-35.266c19.446,0,35.266,15.82,35.266,35.266v5.497c0,4.142,3.358,7.5,7.5,7.5h19.37
		c11.858,0,21.506,9.647,21.506,21.505c0,10.122-7.177,18.973-17.066,21.045c-3.474,0.728-5.961,3.791-5.961,7.34v32.944
		C127.707,397.386,93.947,368.78,72.094,332.257z M182.975,417.684v-32.402c13.644-5.442,23.027-18.855,23.027-33.928
		c0-20.129-16.376-36.505-36.506-36.505h-11.909c-1.056-26.791-23.181-48.263-50.227-48.263c-3.504,0-6.925,0.363-10.229,1.049
		v-13.838c10.67-3.226,18.463-13.145,18.463-24.854v-6.602c8.219,0.174,21.541,0.098,39.866-0.227v2.357c0,4.142,3.358,7.5,7.5,7.5
		s7.5-3.358,7.5-7.5v-89.54c9.143-5.41,14.995-15.381,14.995-26.237c0-16.793-13.662-30.455-30.455-30.455h-26.982
		c14.031-9.628,29.409-17.427,45.795-23.041c7.768,26.884,32.787,46.23,61.438,46.23s53.67-19.346,61.438-46.23
		c20.573,7.049,39.562,17.535,56.283,30.771l0.288,24.43H320.85c-4.142,0-7.5,3.358-7.5,7.5s3.358,7.5,7.5,7.5h12.5v13.086h-23.926
		c-0.419,0-0.838,0.035-1.252,0.105c-13.124,2.223-23.403,14.39-23.403,27.701v13.941h-48.283c-4.142,0-7.5,3.358-7.5,7.5v21.399
		c0,19.515,15.876,35.391,35.391,35.391c14.164,0,26.731-8.378,32.333-20.968c12.996,0,46.285,0,58.485,0
		c6.925,11.87,18.811,20.017,32.28,22.246v13.94H260.459c-17.354,0-31.474,14.119-31.474,31.474s14.119,31.474,31.474,31.474h19.084
		v46.765c0,17.335,7.615,33.242,20.545,44.149C279.847,420.973,258.011,425,235.252,425C217.128,425,199.59,422.446,182.975,417.684
		z M387.902,347.997v-46.112h25.183C406.823,318.481,398.307,333.978,387.902,347.997z M418.051,286.885h-37.649
		c-4.142,0-7.5,3.358-7.5,7.5v71.45c-16.065,16.894-35.202,30.836-56.501,40.938c-13.563-7.792-21.857-21.794-21.857-37.321v-54.265
		c0-4.142-3.358-7.5-7.5-7.5h-26.584c-9.083,0-16.474-7.39-16.474-16.474s7.39-16.474,16.474-16.474h134.515
		c4.142,0,7.5-3.358,7.5-7.5v-28.324c0-4.142-3.358-7.5-7.5-7.5c-12.236,0-23.369-7.229-28.36-18.418
		c-1.206-2.703-3.889-4.444-6.849-4.444l-67.596,0.001c-5.561,0-7.382,3.438-7.978,5.658l-0.056-0.014
		c-2.305,9.022-10.43,15.324-19.759,15.324c-11.244,0-20.391-9.147-20.391-20.391v-13.899h48.283c4.142,0,7.5-3.358,7.5-7.5v-21.441
		c0-5.712,4.788-11.555,10.373-12.806h30.709c4.142,0,7.5-3.358,7.5-7.5v-20.586h12.5c2.004,0,3.925-0.802,5.334-2.228
		s2.188-3.356,2.165-5.36l-0.218-18.473c35.224,34.509,57.121,82.573,57.121,135.662
		C425.252,252.981,422.741,270.387,418.051,286.885z"/>
	<path d="M267.859,164.532c4.142,0,7.5-3.358,7.5-7.5v-7.813c0-4.142-3.358-7.5-7.5-7.5s-7.5,3.358-7.5,7.5v7.813
		C260.359,161.174,263.717,164.532,267.859,164.532z"/>
	<path d="M462.735,242.516c-4.13-0.268-7.702,2.864-7.972,6.997C447.26,364.739,350.84,455,235.252,455
		c-44.492,0-87.357-13.222-123.961-38.235c-1.936-1.323-4.379-1.664-6.603-0.923l-75.416,25.138l25.139-75.415
		c0.741-2.224,0.4-4.667-0.923-6.603C28.474,322.356,15.252,279.491,15.252,235c0-121.309,98.691-220,220-220
		c115.587,0,212.008,90.261,219.511,205.488c0.27,4.134,3.843,7.276,7.972,6.997c4.133-0.269,7.266-3.838,6.997-7.971
		c-3.872-59.464-29.98-114.767-73.514-155.72C352.487,22.656,295.322,0,235.252,0c-62.771,0-121.784,24.444-166.17,68.83
		S0.252,172.229,0.252,235c0,46.271,13.391,90.898,38.763,129.316l-28.717,86.149c-0.898,2.695-0.197,5.666,1.812,7.675
		c2.008,2.009,4.98,2.71,7.675,1.812l86.15-28.716C144.352,456.609,188.98,470,235.252,470c60.069,0,117.234-22.656,160.965-63.793
		c43.534-40.953,69.642-96.254,73.514-155.719C470.001,246.354,466.868,242.786,462.735,242.516z"/>
</svg>
